<?xml version="1.0" standalone="no"?>
<!DOCTYPE svg PUBLIC "-//W3C//DTD SVG 20010904//EN"
 "http://www.w3.org/TR/2001/REC-SVG-20010904/DTD/svg10.dtd">
<svg version="1.0" xmlns="http://www.w3.org/2000/svg"
 width="2201.000000pt" height="2201.000000pt" viewBox="0 0 2201.000000 2201.000000"
 preserveAspectRatio="xMidYMid meet">
<metadata>
Created by potrace 1.14, written by Peter Selinger 2001-2017
</metadata>
<g transform="translate(0.000000,2201.000000) scale(0.100000,-0.100000)"
fill="#000000" stroke="none">
<path d="M10628 21965 c-2 -1 -82 -5 -178 -9 -96 -3 -188 -8 -205 -10 -16 -2
-75 -7 -130 -11 -55 -4 -116 -8 -135 -10 -106 -10 -187 -18 -200 -20 -8 -2
-44 -6 -80 -10 -36 -4 -72 -8 -80 -10 -8 -1 -42 -6 -75 -9 -33 -4 -71 -9 -85
-11 -14 -2 -45 -7 -70 -10 -55 -7 -88 -13 -160 -25 -30 -5 -71 -12 -90 -15
-19 -3 -107 -19 -195 -36 -88 -17 -171 -33 -185 -36 -44 -8 -202 -43 -315 -69
-1236 -292 -2433 -809 -3495 -1510 -211 -139 -313 -210 -527 -368 -23 -17 -54
-40 -69 -51 -44 -32 -269 -207 -274 -214 -3 -3 -41 -35 -85 -70 -44 -36 -87
-72 -96 -80 -9 -9 -40 -36 -70 -61 -70 -58 -220 -192 -284 -251 -27 -26 -75
-70 -105 -99 -195 -182 -501 -498 -668 -690 -32 -35 -66 -74 -78 -86 -11 -12
-38 -43 -60 -70 -21 -26 -46 -55 -54 -64 -8 -9 -24 -28 -35 -41 -121 -147
-166 -204 -258 -324 -59 -77 -111 -144 -115 -150 -20 -25 -215 -299 -274 -385
-52 -76 -273 -419 -325 -506 -25 -42 -158 -272 -181 -314 -13 -25 -32 -58 -42
-75 -88 -152 -274 -527 -397 -800 -25 -55 -51 -113 -58 -130 -8 -16 -35 -82
-60 -145 -26 -63 -52 -128 -60 -145 -70 -159 -261 -720 -339 -995 -26 -91 -51
-178 -56 -195 -36 -117 -149 -611 -189 -830 -27 -145 -30 -164 -37 -205 -2
-19 -9 -57 -14 -85 -5 -27 -12 -70 -15 -95 -3 -25 -8 -52 -10 -60 -2 -8 -6
-42 -10 -75 -3 -33 -8 -67 -10 -75 -2 -8 -6 -42 -10 -75 -3 -33 -8 -73 -10
-90 -10 -77 -15 -125 -20 -185 -3 -36 -8 -83 -10 -105 -2 -22 -7 -80 -10 -130
-4 -49 -8 -110 -11 -135 -24 -276 -24 -1290 0 -1440 3 -14 7 -70 11 -125 13
-193 14 -216 31 -365 3 -30 7 -66 9 -80 2 -14 7 -50 10 -80 3 -30 8 -66 10
-80 10 -69 15 -109 20 -150 6 -45 32 -203 41 -250 3 -14 7 -36 9 -50 5 -32 12
-70 25 -140 6 -30 13 -71 16 -90 12 -78 100 -460 144 -630 17 -63 32 -122 34
-130 17 -67 153 -522 166 -553 5 -12 35 -96 65 -187 31 -91 67 -192 80 -225
55 -142 138 -352 150 -380 30 -68 156 -354 177 -400 52 -116 311 -621 383
-745 42 -74 89 -155 103 -179 42 -76 76 -132 132 -221 98 -157 289 -450 300
-460 3 -3 21 -27 40 -55 19 -27 38 -54 42 -60 4 -5 25 -33 45 -62 91 -126 157
-216 167 -226 6 -7 38 -48 71 -92 53 -71 280 -352 294 -365 4 -3 49 -54 101
-115 52 -60 113 -130 136 -155 23 -25 70 -76 105 -115 86 -94 443 -451 550
-550 151 -140 182 -168 324 -290 220 -189 608 -495 755 -595 12 -8 52 -37 88
-64 37 -26 157 -108 267 -181 174 -114 228 -149 313 -200 9 -6 80 -48 157 -94
156 -94 240 -142 300 -172 22 -11 56 -29 75 -41 105 -62 563 -287 775 -380 50
-22 104 -46 120 -53 17 -7 59 -25 95 -40 36 -14 79 -32 95 -40 114 -52 818
-302 900 -320 11 -2 58 -16 105 -30 91 -28 382 -107 440 -121 19 -4 37 -8 40
-9 54 -15 304 -74 340 -80 19 -3 89 -17 155 -30 66 -13 136 -27 155 -30 19 -3
67 -12 105 -20 39 -7 92 -16 119 -20 27 -3 52 -8 55 -9 3 -2 29 -7 56 -10 46
-6 87 -11 155 -21 14 -2 52 -7 85 -11 33 -3 68 -8 77 -9 9 -2 48 -7 85 -11 37
-3 93 -10 123 -15 30 -4 543 -7 1140 -7 l1085 0 215 28 c118 15 238 30 265 34
28 4 66 9 85 12 19 2 44 7 56 9 12 3 39 7 60 10 21 3 62 10 89 16 77 15 90 17
126 23 19 3 44 8 55 10 23 5 85 16 119 21 11 2 54 11 95 20 41 9 84 18 95 21
31 6 68 14 95 20 14 3 43 9 65 14 22 5 52 13 68 19 15 6 27 9 27 7 0 -2 33 5
73 15 39 11 81 22 92 24 11 3 70 19 130 36 61 17 117 32 125 34 191 48 739
237 1085 375 365 145 1089 491 1217 581 14 11 29 19 32 19 7 0 230 128 353
203 147 90 490 315 618 406 39 28 78 56 89 63 156 109 626 479 747 590 20 18
50 44 65 57 191 160 593 550 814 790 58 63 114 123 125 135 55 58 325 378 427
506 883 1111 1547 2391 1938 3735 22 77 44 154 50 170 32 106 78 290 125 504
3 11 7 29 9 38 15 59 36 152 40 173 2 14 14 72 25 130 11 58 23 119 26 135 3
17 7 41 9 55 6 34 46 279 51 310 2 14 6 50 10 80 3 30 8 66 10 80 5 27 10 64
20 155 4 33 8 71 10 85 2 14 7 57 10 95 3 39 8 88 10 110 2 22 7 78 10 125 3
47 8 112 10 145 24 306 24 1198 1 1425 -2 19 -7 80 -11 135 -3 55 -8 118 -11
140 -7 67 -13 127 -19 195 -3 36 -8 76 -10 90 -2 14 -7 50 -10 80 -28 252
-104 691 -182 1040 -25 113 -46 212 -48 220 -3 13 -18 71 -70 265 -9 33 -20
74 -26 90 -5 17 -27 93 -49 170 -69 245 -258 785 -335 960 -7 17 -24 59 -38
95 -14 36 -45 110 -70 165 -24 55 -75 168 -112 250 -80 180 -271 555 -385 755
-46 80 -94 165 -107 189 -60 107 -244 401 -320 513 -29 43 -53 82 -53 87 0 5
-3 11 -8 13 -4 2 -34 41 -66 88 -73 105 -268 373 -276 380 -3 3 -35 43 -70 90
-36 47 -67 87 -70 90 -3 3 -30 37 -60 75 -52 67 -182 223 -247 296 -238 267
-322 357 -518 554 -233 233 -321 318 -430 415 -33 29 -75 66 -94 83 -358 318
-784 645 -1196 917 -145 96 -246 161 -300 193 -11 7 -22 14 -25 17 -5 5 -177
107 -258 152 -20 11 -41 24 -47 28 -9 6 -33 20 -175 98 -327 180 -768 389
-1115 529 -252 102 -422 165 -665 246 -258 87 -692 214 -820 241 -14 3 -104
24 -200 46 -210 49 -509 108 -680 135 -19 3 -60 10 -90 15 -30 5 -75 12 -100
15 -69 8 -122 15 -150 20 -14 2 -47 7 -75 10 -27 3 -84 10 -125 15 -104 13
-268 28 -379 35 -25 2 -80 6 -121 9 -181 15 -269 17 -672 20 -235 2 -428 2
-430 1z m-434 -5022 l7 -63 -31 0 c-16 0 -30 3 -30 7 0 4 8 43 17 87 19 87 24
82 37 -31z m199 5 c4 -54 2 -68 -9 -68 -15 0 -20 73 -8 118 9 32 11 26 17 -50z
m-53 -60 c0 -5 -6 -8 -14 -8 -13 0 -27 62 -25 114 0 18 38 -86 39 -106z"/>
</g>
</svg>
